<?xml version="1.0" encoding="UTF-8"?>
<svg xmlns="http://www.w3.org/2000/svg" xmlns:xlink="http://www.w3.org/1999/xlink" viewBox="0 0 72.52 27.61">
  <defs>
    <style>
      .cls-1 {
        fill: #ffadd2;
      }

      .cls-2 {
        fill: url(#linear-gradient-8);
      }

      .cls-3 {
        fill: url(#linear-gradient-7);
      }

      .cls-4 {
        fill: url(#linear-gradient-5);
      }

      .cls-5 {
        fill: url(#linear-gradient-6);
      }

      .cls-6 {
        fill: url(#linear-gradient-9);
      }

      .cls-7 {
        fill: url(#linear-gradient-4);
      }

      .cls-8 {
        fill: url(#linear-gradient-3);
      }

      .cls-9 {
        fill: url(#linear-gradient-2);
      }

      .cls-10 {
        fill: url(#linear-gradient);
      }

      .cls-11 {
        isolation: isolate;
      }

      .cls-12 {
        fill: #fff;
      }

      .cls-13 {
        mix-blend-mode: overlay;
      }

      .cls-14 {
        fill: url(#linear-gradient-10);
      }

      .cls-15 {
        fill: url(#linear-gradient-11);
      }

      .cls-16 {
        fill: url(#linear-gradient-12);
      }

      .cls-17 {
        fill: url(#linear-gradient-13);
      }

      .cls-18 {
        fill: url(#linear-gradient-14);
      }

      .cls-19 {
        fill: url(#linear-gradient-15);
      }

      .cls-20 {
        fill: url(#linear-gradient-16);
      }

      .cls-21 {
        fill: url(#linear-gradient-17);
      }
    </style>
    <linearGradient id="linear-gradient" x1="15.32" y1="11.7" x2="16.41" y2="45.37" gradientUnits="userSpaceOnUse">
      <stop offset="0" stop-color="#fff5f5"/>
      <stop offset="1" stop-color="#ffc2e4"/>
    </linearGradient>
    <linearGradient id="linear-gradient-2" x1="-2850.46" y1="16.76" x2="-2821.08" y2="16.76" gradientTransform="translate(-2820.21) rotate(-180) scale(1 -1)" gradientUnits="userSpaceOnUse">
      <stop offset="0" stop-color="#fed3d3" stop-opacity="0"/>
      <stop offset=".99" stop-color="#ffdee3"/>
    </linearGradient>
    <linearGradient id="linear-gradient-3" x1="-2850.46" y1="19.84" x2="-2822.1" y2="19.84" xlink:href="#linear-gradient-2"/>
    <linearGradient id="linear-gradient-4" x1="-360.52" y1="82.49" x2="-360.09" y2="88.12" gradientTransform="translate(374.57 -99.89) rotate(-3.55)" gradientUnits="userSpaceOnUse">
      <stop offset="0" stop-color="#fff"/>
      <stop offset="1" stop-color="#fff" stop-opacity="0"/>
    </linearGradient>
    <linearGradient id="linear-gradient-5" x1="-368.86" y1="85.94" x2="-368.56" y2="89.89" xlink:href="#linear-gradient-4"/>
    <linearGradient id="linear-gradient-6" x1="-374.19" y1="90.74" x2="-373.96" y2="93.76" xlink:href="#linear-gradient-4"/>
    <linearGradient id="linear-gradient-7" x1="-352.78" y1="90.23" x2="-354.92" y2="91.88" xlink:href="#linear-gradient-4"/>
    <linearGradient id="linear-gradient-8" x1="-364.77" y1="89.45" x2="-364.28" y2="91.77" xlink:href="#linear-gradient-4"/>
    <linearGradient id="linear-gradient-9" x1="47.56" y1="10.63" x2="48.64" y2="43.98" xlink:href="#linear-gradient"/>
    <linearGradient id="linear-gradient-10" x1="-2863.3" y1="-1.14" x2="-2864.21" y2="11.59" xlink:href="#linear-gradient-2"/>
    <linearGradient id="linear-gradient-11" x1="-2891.88" y1="18.99" x2="-2844.24" y2="18.99" xlink:href="#linear-gradient-2"/>
    <linearGradient id="linear-gradient-12" x1="-2890.71" y1="22.86" x2="-2844.31" y2="22.86" xlink:href="#linear-gradient-2"/>
    <linearGradient id="linear-gradient-13" x1="-2863.36" y1="90.35" x2="-2862.8" y2="97.74" gradientTransform="translate(-2824.68 109.48) rotate(176.06) scale(1 -1)" xlink:href="#linear-gradient-4"/>
    <linearGradient id="linear-gradient-14" x1="-2876.95" y1="94.91" x2="-2876.55" y2="100.11" gradientTransform="translate(-2824.68 109.48) rotate(176.06) scale(1 -1)" xlink:href="#linear-gradient-4"/>
    <linearGradient id="linear-gradient-15" x1="-2885.66" y1="101.29" x2="-2885.35" y2="105.28" gradientTransform="translate(-2824.68 109.48) rotate(176.06) scale(1 -1)" xlink:href="#linear-gradient-4"/>
    <linearGradient id="linear-gradient-16" x1="-2851.15" y1="100.33" x2="-2854.22" y2="102.69" gradientTransform="translate(-2824.68 109.48) rotate(176.06) scale(1 -1)" xlink:href="#linear-gradient-4"/>
    <linearGradient id="linear-gradient-17" x1="-2870.25" y1="99.56" x2="-2869.63" y2="102.54" gradientTransform="translate(-2824.68 109.48) rotate(176.06) scale(1 -1)" xlink:href="#linear-gradient-4"/>
  </defs>
  <g class="cls-11">
    <g id="Layer_2" data-name="Layer 2">
      <g id="Layer_1-2" data-name="Layer 1">
        <g>
          <g>
            <g>
              <path class="cls-10" d="M16.34,23.87c-2.17,0-3.86-1.87-4.65-2.93-.47,1.07-1.47,2.83-3.04,2.83-.12,0-.25-.01-.38-.03-1.5-.28-2.48-1.22-2.99-1.85-.24.31-.64.67-1.27.97-.23.11-.47.16-.73.16h0c-.6,0-1.2-.29-1.7-.81-.66-.67-1.06-1.66-1.14-2.78-.02-.31-.02-.62,0-.92.12-1.5,1.06-2.33,2.65-2.33.42,0,.82.06,1.13.12-.09-.92-.12-2.54.71-3.34.33-.31.77-.47,1.3-.47.6,0,1.23.2,1.69.4-.02-1.35.22-4.12,2.49-5.26.43-.21.87-.32,1.33-.32,1.56,0,2.89,1.27,3.68,2.24.04-.68.14-1.61.36-2.75.45-2.41,1.83-3.85,3.67-3.85.85,0,1.8.3,2.84.88,2.61,1.48,3.19,4.25,3.28,5.99.31-.28.7-.49,1.19-.49.39,0,.79.14,1.19.41.35.24.7.58,1.07,1.03.86,1.08,1.19,2.11.97,3.06-.18.8-.71,1.35-1.14,1.69.16.12.33.26.51.42.81.77,1.67,2.05,1.15,3.85-.36,1.26-1.22,1.53-1.88,1.53-.95,0-1.98-.56-2.61-.93-.13.66-.53,1.68-2.02,1.68-.15,0-.32-.01-.5-.04-1.55-.2-2.67-.9-3.32-1.42-.29,1.28-1.2,2.92-3.32,3.24-.18.03-.36.04-.54.04Z"/>
              <path class="cls-1" d="M19.47,3.36c.73,0,1.6.25,2.63.83,3.7,2.09,3.03,7.1,3.03,7.1,0,0,.54-1.55,1.66-1.55.28,0,.6.1.95.34.3.2.62.51.97.95,2.44,3.04-.63,4.49-.63,4.49,0,0,.49.25,1.01.73.72.68,1.49,1.83,1.03,3.42-.26.92-.83,1.22-1.47,1.22-1.26,0-2.81-1.18-2.92-1.18h0c-.15,0,.17,1.93-1.71,1.93-.13,0-.28,0-.44-.03-2.37-.31-3.69-1.87-3.69-1.87,0,0-.07,3.24-3.06,3.69-.16.02-.32.04-.48.04-2.74,0-4.76-3.42-4.76-3.42,0,0-1.02,3.32-2.93,3.32-.1,0-.2,0-.3-.03-2.1-.39-3.11-2.24-3.11-2.24,0,0-.19.81-1.41,1.39-.17.08-.35.12-.54.12-.46,0-.97-.23-1.39-.68-.53-.54-.94-1.4-1.02-2.51-.02-.27-.02-.56,0-.85.13-1.58,1.23-1.94,2.22-1.94.86,0,1.65.28,1.65.28,0,0-.5-2.66.49-3.61.27-.26.63-.35,1.01-.35,1.01,0,2.16.67,2.16.67,0,0-.54-4.2,2.21-5.58.39-.19.77-.28,1.14-.28,2.26,0,4.08,3.12,4.08,3.12,0,0-.09-1.48.38-3.97.34-1.81,1.33-3.51,3.25-3.51M19.47,2.51c-2.07,0-3.6,1.57-4.09,4.2-.13.68-.22,1.28-.28,1.81-.85-.84-2-1.65-3.35-1.65-.52,0-1.03.12-1.52.37-2.16,1.08-2.64,3.48-2.71,5.03-.39-.12-.84-.22-1.28-.22-.64,0-1.2.2-1.6.59-.8.77-.92,2.12-.88,3.13-.21-.03-.44-.04-.67-.04-1.81,0-2.93.99-3.08,2.73-.03.31-.03.64,0,.98.08,1.23.53,2.31,1.26,3.06.58.6,1.29.93,2,.93.32,0,.63-.07.91-.2.46-.22.81-.47,1.08-.72.61.64,1.57,1.39,2.92,1.64.15.03.31.04.46.04,1.52,0,2.54-1.34,3.13-2.46.95,1.12,2.56,2.56,4.56,2.56.2,0,.4-.01.6-.04,2.02-.3,3.04-1.68,3.49-2.96.72.48,1.74.97,3.03,1.14.19.03.38.04.55.04.83,0,1.82-.28,2.28-1.47.65.35,1.52.72,2.36.72,1.12,0,1.95-.67,2.29-1.84.45-1.56,0-3.08-1.27-4.27-.05-.04-.09-.09-.14-.13.37-.38.74-.9.9-1.58.25-1.09-.1-2.24-1.05-3.43-.4-.49-.77-.86-1.16-1.12-.47-.32-.95-.49-1.43-.49-.3,0-.58.07-.83.18-.22-1.81-1-4.23-3.44-5.61-1.1-.62-2.12-.94-3.05-.94h0Z"/>
            </g>
            <path class="cls-9" d="M.87,19.39c.16,2.39,1.86,3.59,2.95,3.07,1.22-.58,1.41-1.39,1.41-1.39,0,0,1.01,1.85,3.11,2.24,2.1.38,3.24-3.29,3.24-3.29,0,0,2.25,3.83,5.24,3.39,2.99-.45,3.06-3.69,3.06-3.69,0,0,1.33,1.56,3.69,1.87,2.37.32,1.99-1.9,2.15-1.89.16,0,3.61,2.68,4.39-.04.79-2.72-2.04-4.15-2.04-4.15,0,0,3.07-1.45.63-4.49-.35-.44-.68-.75-.97-.95l-.78.05s1.87,1.6,1.29,3.73c-.55,2.07-3.01,1.18-3.17,1.12.17.1,3.34,1.9,2.55,2.87-.81.99-2.22-.97-2.22-.97,0,0,.26,2.06-1.06,2.47-1.32.41-3.02-2.64-3.02-2.64,0,0,.06.74-1.18.66-1.25-.08-1.77-.95-1.77-.95,0,0,.57,2.87-1.71,3.24-2.28.37-4.05-3.02-4.05-3.02,0,0-.38,1.2-1.18,1.39-.8.2-1.77-.64-1.77-.64,0,0,.03,2.48-1.5,2.68-1.53.2-3.22-1.93-3.22-1.93,0,0-1.74,3.98-4.06,1.26h0Z"/>
            <g class="cls-13">
              <path class="cls-12" d="M19.47,4c.66,0,1.44.25,2.31.74,3.27,1.85,2.72,6.42,2.71,6.46-.04.32.16.62.48.7.05.01.1.02.15.02.26,0,.51-.17.6-.42.1-.29.52-1.13,1.06-1.13.38,0,.89.37,1.43,1.05.65.81.91,1.53.77,2.15-.2.89-1.16,1.36-1.17,1.37-.22.1-.36.32-.36.56,0,.24.13.47.35.58.1.05,2.34,1.23,1.72,3.4-.19.67-.53.76-.86.76-.8,0-1.87-.66-2.32-.94-.28-.17-.4-.24-.6-.25-.4,0-.63.27-.69.81-.08.76-.26,1.12-1.02,1.12-.11,0-.22,0-.35-.02-2.08-.28-3.29-1.64-3.3-1.65-.12-.14-.3-.22-.48-.22-.07,0-.14.01-.21.04-.25.09-.42.32-.42.58,0,.11-.11,2.72-2.52,3.08-.13.02-.26.03-.39.03-2.34,0-4.19-3.08-4.2-3.11-.11-.19-.32-.31-.55-.31-.02,0-.05,0-.07,0-.25.03-.46.2-.53.44-.23.75-1.16,2.87-2.32,2.87-.06,0-.13,0-.19-.02-1.76-.32-2.67-1.9-2.67-1.92-.11-.2-.33-.32-.55-.32-.02,0-.05,0-.07,0-.25.03-.47.21-.54.46,0,.02-.18.56-1.07.98-.08.04-.17.06-.27.06-.31,0-.68-.2-.98-.53-.6-.65-.88-1.68-.79-2.84.05-.63.28-1.36,1.59-1.36.74,0,1.43.24,1.44.24.07.02.14.04.21.04.15,0,.3-.05.41-.15.17-.15.25-.38.21-.6-.18-.96-.2-2.54.31-3.03.12-.12.31-.18.57-.18.68,0,1.56.42,1.85.59.1.06.21.09.32.09.12,0,.24-.04.35-.11.2-.13.31-.37.28-.61,0-.04-.45-3.78,1.86-4.94.28-.14.56-.21.85-.21,1.55,0,3.08,2.03,3.54,2.81.12.2.33.31.55.31.06,0,.12,0,.19-.03.28-.09.47-.35.45-.65,0-.01-.08-1.44.37-3.82.17-.9.76-2.98,2.63-2.98h0M19.47,3.36c-1.93,0-2.91,1.69-3.25,3.5-.47,2.5-.38,3.98-.38,3.98,0,0-1.83-3.12-4.09-3.12-.37,0-.75.08-1.14.28-2.75,1.38-2.21,5.58-2.21,5.58,0,0-1.15-.67-2.16-.67-.38,0-.74.09-1.01.35-.99.95-.49,3.61-.49,3.61,0,0-.79-.28-1.65-.28-.99,0-2.09.37-2.22,1.94-.21,2.54,1.22,4.05,2.4,4.05.19,0,.37-.04.54-.12,1.22-.58,1.41-1.39,1.41-1.39,0,0,1.01,1.85,3.11,2.24.1.02.21.03.31.03,1.9,0,2.93-3.32,2.93-3.32,0,0,2.01,3.42,4.75,3.42.16,0,.32-.01.48-.04,2.99-.44,3.06-3.69,3.06-3.69,0,0,1.33,1.56,3.69,1.87.16.02.3.03.43.03,1.88,0,1.56-1.93,1.71-1.93h0c.11,0,1.66,1.18,2.92,1.18.64,0,1.21-.3,1.47-1.22.79-2.72-2.04-4.14-2.04-4.14,0,0,3.07-1.45.63-4.49-.77-.96-1.41-1.29-1.92-1.29-1.12,0-1.66,1.55-1.66,1.55,0,0,.67-5.01-3.03-7.1-1.02-.58-1.89-.82-2.62-.82h0Z"/>
            </g>
            <path class="cls-8" d="M1.89,21.9c.6.63,1.35.83,1.94.56,1.22-.58,1.41-1.39,1.41-1.39,0,0,1.01,1.85,3.11,2.24,2.1.38,3.24-3.29,3.24-3.29,0,0,2.25,3.83,5.24,3.39,2.99-.45,3.06-3.69,3.06-3.69,0,0,1.33,1.56,3.69,1.87,2.37.32,1.99-1.9,2.15-1.89.16,0,3.61,2.68,4.39-.04.46-1.59-.31-2.73-1.03-3.42.14.85.22,2.35-.95,2.64-1.65.41-2.4-.72-2.4-.72,0,0,.07,1.94-1.77,1.95-1.84.01-3.34-2.2-3.34-2.2,0,0-.6,1.36-1.45.8,0,0-.83,2.82-2.98,2.59-2.15-.23-3.86-3.1-3.86-3.1,0,0-.9,1.31-2.12.54,0,0-.3,2.35-1.83,2.54-1.53.2-3.25-2.08-3.25-2.08,0,0-.96,2.77-2.73,2.7-.15,0-.32,0-.52,0Z"/>
            <path class="cls-12" d="M24.39,15.13c-.06-.88-.65-1.66-1.55-1.69-.4-.04-.67.1-.81.44-.14.33-.16.79-.14,1.18.03.24-.26.41-.46.28-.9-.57-1.87-.55-2.31.5-.14.31-.23.65-.33,1-.19-1.94,1.2-3.07,2.96-1.99,0,0-.46.28-.46.28-.07-.73,0-1.73.78-2.12,1.27-.5,2.66.84,2.3,2.11h0Z"/>
            <path class="cls-12" d="M14.39,18.64c.4-1.32.31-2.94-.88-3.77-1.38-1.15-2.18.12-2.46,1.49-.03.19-.26.29-.41.18-.47-.31-1.13-.55-1.55-.18-.46.4-.56,1.12-.67,1.71-.22-1.75.77-3,2.51-1.97,0,0-.41.18-.41.18.84-5.17,6.07-1.1,3.86,2.35h0Z"/>
            <path class="cls-7" d="M17.56,11.63s-.84-4.16,1.88-5.55,4.44,1.62,4.29,3.95"/>
            <path class="cls-4" d="M9.69,13.6c.08.02-.35-3.44,1.81-4.08,2.17-.64,3.48,3.07,3.48,3.07"/>
            <path class="cls-5" d="M5.72,17.49s-.71-1.88.3-2.82,2.56,1.25,2.56,1.25"/>
            <path class="cls-3" d="M25.02,12.97s.6-2.44,2.42-1.15-.87,3.76-.87,3.76"/>
            <path class="cls-2" d="M14.64,15.07s.38-5.13,4.02-1.72"/>
          </g>
          <g>
            <g>
              <path class="cls-6" d="M46.71,27.18c-3.89-.01-5.35-2.56-5.84-3.86-.81.77-2.57,2.13-5.3,2.76-.49.11-.95.17-1.36.17-1.98,0-2.56-1.32-2.78-2.03-.89.59-2.92,1.94-4.71,1.94h0c-1.14,0-2.02-.54-2.56-1.57-.91-1.74-.52-3.59,1.09-5.2.3-.29.59-.54.85-.73-.79-.35-1.91-1.03-2.33-2.21-.41-1.15-.06-2.48,1.04-3.94.49-.65.97-1.15,1.48-1.52.66-.48,1.33-.73,2.01-.73.53,0,1.05.15,1.54.44.16.09.3.2.44.3-.26-2.23-.07-6.32,4-8.86,1.81-1.13,3.5-1.7,5.02-1.7,2.5,0,4.54,1.57,5.6,4.3.69,1.78,1.05,3.18,1.23,4.09,1.03-1.5,3.26-4.13,6.3-4.13.47,0,.96.07,1.43.2,3.93,1.07,4.74,4.98,4.91,6.61.78-.41,2.17-1.04,3.44-1.04.56,0,1.04.12,1.45.36,1.5.9,1.71,3.24,1.72,4.39.67-.22,1.81-.53,2.96-.53,1.92,0,3.15.87,3.56,2.5.09.36.16.75.19,1.19.1,1.47-.35,2.82-1.26,3.82-.76.84-1.76,1.32-2.75,1.32-.24,0-.47-.03-.69-.08-1.27-.32-2-.82-2.39-1.22-.59.87-1.99,2.5-4.52,3.2-.32.09-.65.13-.98.13-2.38,0-4.21-2.29-4.97-3.43-.95,1.48-3.67,5.07-7.8,5.07h0Z"/>
              <path class="cls-1" d="M39.29.86c2.68,0,4.38,1.89,5.2,4.03,1.24,3.2,1.38,5.15,1.38,5.15,0,0,2.58-4.92,6.55-4.92.42,0,.86.06,1.32.18,4.58,1.24,4.64,6.64,4.64,6.9h0s2.08-1.32,3.83-1.32c.44,0,.87.09,1.23.3,1.78,1.06,1.49,4.64,1.49,4.64,0,0,1.72-.73,3.41-.73,1.37,0,2.72.47,3.15,2.18.1.38.15.76.18,1.12.1,1.48-.41,2.69-1.15,3.5-.69.76-1.59,1.18-2.43,1.18-.2,0-.39-.02-.58-.07-2.07-.53-2.55-1.55-2.55-1.55,0,0-1.27,2.62-4.59,3.54-.3.08-.58.12-.87.12-2.88,0-4.98-3.83-4.98-3.83,0,0-2.89,5.46-7.79,5.46-4.91-.02-5.65-4.26-5.65-4.26,0,0-1.85,2.31-5.6,3.17-.48.11-.9.16-1.26.16-2.44,0-2.35-2.23-2.57-2.23,0,0,0,0,0,0-.18.02-2.78,2.14-4.91,2.14-.87,0-1.66-.35-2.18-1.35-1.04-2-.03-3.66,1.01-4.69.74-.74,1.49-1.15,1.49-1.15,0,0-5.24-1.31-1.89-5.78.48-.65.94-1.11,1.39-1.44.64-.47,1.23-.64,1.75-.64s.95.16,1.33.38c.79.47,1.27,1.2,1.35,1.34-.09-.33-1.89-6.52,3.53-9.9,1.86-1.16,3.45-1.64,4.8-1.64M39.29,0c-1.61,0-3.37.59-5.25,1.77-3.78,2.36-4.37,5.99-4.26,8.4-.48-.24-.98-.36-1.49-.36-.77,0-1.53.27-2.26.81-.54.4-1.06.93-1.57,1.62-1.19,1.59-1.56,3.05-1.1,4.34.37,1.03,1.2,1.72,1.95,2.15-.12.11-.25.22-.37.35-1.75,1.75-2.17,3.77-1.16,5.69.62,1.18,1.63,1.81,2.94,1.81,1.65,0,3.44-1.03,4.5-1.71.36.8,1.16,1.81,2.99,1.81.44,0,.93-.06,1.46-.18,2.38-.55,4.05-1.63,5.03-2.45.8,1.66,2.62,3.55,6.02,3.56,3.91,0,6.59-3.02,7.81-4.75.95,1.27,2.72,3.11,4.96,3.11.37,0,.73-.05,1.09-.15,2.32-.64,3.74-2.04,4.48-2.99.48.36,1.18.75,2.21,1.01.26.06.52.1.79.1,1.11,0,2.23-.53,3.07-1.46.99-1.08,1.48-2.55,1.37-4.13-.03-.47-.1-.88-.2-1.28-.46-1.82-1.87-2.82-3.98-2.82-.93,0-1.85.19-2.55.39-.07-1.33-.44-3.31-1.91-4.19-.47-.28-1.03-.42-1.67-.42-1.09,0-2.26.43-3.1.82-.31-1.94-1.4-5.35-5.14-6.37-.51-.14-1.03-.21-1.54-.21h0c-2.75,0-4.86,1.99-6.09,3.55-.21-.86-.54-1.96-1.04-3.24C44.16,1.67,41.98,0,39.29,0h0Z"/>
            </g>
            <path class="cls-14" d="M29.62,11.05c.78,2.45,2.7,3.19,2.7,3.19,0,0-.5-4,1.85-5.25,2.35-1.24,4.74,3.09,4.74,3.02,0-.07.29-3.83,2.23-4.2,1.94-.38,5.34,7.76,5.34,7.76,0,0,3.02-5.64,5.94-6.14,2.92-.5,5.97,2.78,5.97,2.78v-.02c0-.26-.06-5.66-4.64-6.9-4.7-1.29-7.87,4.74-7.87,4.74,0,0-.13-1.95-1.38-5.15-1.24-3.2-4.44-5.86-10-2.39-5.41,3.37-3.62,9.57-3.53,9.9-.08-.13-.57-.87-1.35-1.34Z"/>
            <path class="cls-15" d="M71.66,18.4c.2,3.17-2.31,5.08-4.17,4.61-2.07-.53-2.54-1.55-2.54-1.55,0,0-1.28,2.63-4.59,3.54-3.32.91-5.85-3.71-5.85-3.71,0,0-2.89,5.47-7.79,5.46-4.91-.01-5.65-4.26-5.65-4.26,0,0-1.84,2.31-5.6,3.17-3.76.87-3.57-2.11-3.83-2.08-.26.03-5.3,4.22-7.09.79-1.79-3.43,2.49-5.85,2.49-5.85,0,0-5.23-1.31-1.88-5.78.49-.65.95-1.11,1.39-1.44l1.26-.09s-2.7,2.47-1.37,5.16c1.29,2.61,5.08.97,5.33.86-.26.16-5.02,3.14-3.56,4.26,1.49,1.15,3.39-1.7,3.39-1.7,0,0-.02,2.75,2.19,3.05,2.21.29,4.36-4.05,4.36-4.05,0,0,.04.99,2.04.64,2.01-.34,2.68-1.59,2.68-1.59,0,0-.37,3.88,3.38,3.93,3.75.04,5.95-4.75,5.95-4.75,0,0,.84,1.5,2.18,1.6,1.33.1,2.73-1.19,2.73-1.19,0,0,.43,3.27,2.94,3.23,2.5-.03,4.82-3.16,4.82-3.16,0,0,3.57,4.9,6.8.88h0Z"/>
            <g class="cls-13">
              <path class="cls-12" d="M39.29,1.79c2.61,0,3.84,2.15,4.33,3.43,1.16,3,1.31,4.87,1.31,4.88.03.42.33.76.74.85.06.01.13.02.19.02.34,0,.66-.19.82-.5.02-.04,2.37-4.42,5.74-4.42.35,0,.71.05,1.07.15,3.94,1.07,3.95,5.81,3.95,6.01,0,.34.18.66.48.83.14.08.3.12.45.12.17,0,.35-.05.5-.15.52-.33,2.12-1.18,3.33-1.18.31,0,.56.06.75.17,1.04.62,1.1,2.99,1.04,3.77-.03.32.12.64.38.83.16.12.35.18.55.18.12,0,.25-.02.36-.07.02,0,1.58-.66,3.06-.66,1.65,0,2.06.79,2.23,1.47.47,1.86-.17,3.04-.59,3.58-.51.66-1.25,1.07-1.91,1.07-.12,0-.24-.01-.35-.04-1.51-.38-1.92-1.04-1.92-1.04,0,0,0,0,0,0-.15-.33-.47-.54-.83-.54,0,0-.01,0-.02,0-.35,0-.68.2-.83.52-.05.09-1.17,2.27-4,3.05-.21.06-.42.09-.63.09-1.9,0-3.65-2.41-4.16-3.34-.16-.3-.48-.48-.82-.48h0c-.34,0-.66.19-.82.5-.03.05-2.69,4.96-6.97,4.96-4.03,0-4.71-3.35-4.73-3.49-.06-.36-.33-.65-.68-.74-.08-.02-.16-.03-.23-.03-.28,0-.55.12-.73.35-.02.02-1.72,2.07-5.08,2.85-.39.09-.74.13-1.04.13-1.09,0-1.34-.55-1.54-1.26-.08-.27-.28-.98-1.03-.98-.04,0-.08,0-.12,0-.26.03-.41.13-.81.4-.71.47-2.59,1.73-3.99,1.73-.63,0-1.05-.26-1.36-.85-1.35-2.58,1.98-4.52,2.12-4.6.33-.19.51-.56.46-.93-.05-.38-.32-.69-.69-.78-.5-.13-1.87-.68-2.22-1.65-.24-.69.04-1.59.85-2.67.58-.78,1.47-1.71,2.39-1.71,1.07,0,1.89,1.28,1.89,1.29.17.29.48.45.8.45.13,0,.26-.03.38-.08.43-.19.65-.68.51-1.13-.07-.24-1.74-5.82,3.12-8.85,1.59-.99,3.04-1.49,4.3-1.49M39.29.86c-1.34,0-2.94.47-4.79,1.63-5.57,3.47-3.52,9.92-3.52,9.92,0,0-1.05-1.74-2.69-1.74-.89,0-1.96.51-3.14,2.08-3.35,4.47,1.88,5.78,1.88,5.78,0,0-4.28,2.42-2.49,5.84.52.99,1.31,1.35,2.18,1.35,2.13,0,4.73-2.12,4.91-2.14,0,0,0,0,0,0,.22,0,.12,2.24,2.57,2.24.36,0,.77-.05,1.25-.16,3.76-.87,5.6-3.17,5.6-3.17,0,0,.74,4.25,5.65,4.26h.01c4.9,0,7.78-5.46,7.78-5.46,0,0,2.1,3.82,4.98,3.82.28,0,.58-.04.87-.12,3.31-.91,4.59-3.54,4.59-3.54,0,0,.47,1.03,2.54,1.56.19.05.39.07.58.07,1.98,0,4.28-2.33,3.41-5.81-.43-1.7-1.77-2.18-3.14-2.18-1.7,0-3.42.73-3.42.73,0,0,.29-3.59-1.49-4.65-.36-.21-.78-.3-1.22-.3-1.75,0-3.83,1.33-3.83,1.33,0,0,.06-5.63-4.64-6.92-.45-.12-.89-.18-1.31-.18-3.97,0-6.56,4.92-6.56,4.92,0,0-.13-1.96-1.37-5.16-.83-2.13-2.52-4.02-5.2-4.02h0Z"/>
            </g>
            <path class="cls-16" d="M70.5,21.9c-.85.94-2.02,1.36-3.01,1.11-2.07-.53-2.54-1.55-2.54-1.55,0,0-1.28,2.63-4.59,3.54-3.32.91-5.85-3.71-5.85-3.71,0,0-2.89,5.47-7.79,5.46-4.91-.01-5.65-4.26-5.65-4.26,0,0-1.84,2.31-5.6,3.17-3.76.87-3.57-2.11-3.83-2.08-.26.03-5.3,4.22-7.09.79-1.04-2-.03-3.66,1.01-4.69-.07,1.15.11,3.14,2.04,3.29,2.73.22,3.74-1.41,3.74-1.41,0,0,.26,2.56,3.23,2.22,2.96-.34,4.96-3.54,4.96-3.54,0,0,1.22,1.67,2.5.77,0,0,1.87,3.54,5.3,2.83,3.42-.71,5.62-4.81,5.62-4.81,0,0,1.71,1.56,3.52.3,0,0,.93,3.03,3.44,2.99,2.51-.03,4.85-3.36,4.85-3.36,0,0,2.08,3.46,4.92,3.02.24-.03.52-.07.83-.1Z"/>
            <path class="cls-12" d="M32.9,17.32c-.78-1.84,1.36-3.57,3.13-3.28,1.26.18,1.81,1.63,1.8,2.72,0,0-.69-.36-.69-.36.51-.33,1.02-.55,1.59-.69,1.96-.55,3.39.92,3.51,2.81,0,0-.35-.72-.35-.72-.9-1.85-2.75-1.73-4.24-.69-.27.2-.68,0-.69-.34-.03-.55-.17-1.2-.49-1.57-.31-.37-.82-.48-1.41-.36-1.26.18-2.28,1.12-2.16,2.48h0Z"/>
            <path class="cls-12" d="M49.71,20.02c-1.62-1.65-1.66-4.43.32-5.85,2.26-1.97,4.62-.5,5.42,1.99,0,0-.6-.19-.6-.19,2.24-1.47,4.28-.57,4.38,2.16-.26-.82-.67-1.87-1.52-2.17-.78-.27-1.7.15-2.39.64-.18.13-.43.09-.55-.09-.39-.88-.97-1.84-1.77-2.21-1.6-.72-3.77,1.16-3.94,2.82-.11.96.17,1.99.68,2.9h0Z"/>
            <path class="cls-17" d="M43.25,11.4s.56-5.63-4.09-6.94c-4.65-1.31-6.84,2.99-6.16,6.02"/>
            <path class="cls-18" d="M56.31,12.48c-.12.04-.09-4.6-3.71-5.02-3.61-.42-5.02,4.7-5.02,4.7"/>
            <path class="cls-19" d="M63.47,16.84s.78-2.61-1.03-3.65-3.89,2.13-3.89,2.13"/>
            <path class="cls-20" d="M31.47,14.6s-1.44-3.1-4.13-1.05c-2.69,2.05,2.12,4.78,2.12,4.78"/>
            <path class="cls-21" d="M48.61,15.37s-1.6-6.67-6.81-1.48"/>
          </g>
        </g>
      </g>
    </g>
  </g>
</svg>