<?xml version="1.0" encoding="UTF-8"?>
<svg xmlns="http://www.w3.org/2000/svg" xmlns:xlink="http://www.w3.org/1999/xlink" viewBox="0 0 8.42 9.96">
  <defs>
    <style>
      .cls-1 {
        fill: url(#linear-gradient);
      }

      .cls-2 {
        fill: #facbbb;
        mix-blend-mode: multiply;
      }

      .cls-3 {
        isolation: isolate;
      }

      .cls-4 {
        fill: #fff;
      }

      .cls-5 {
        fill: #fa7878;
      }
    </style>
    <linearGradient id="linear-gradient" x1="268.93" y1="7.52" x2="269" y2="3.25" gradientTransform="translate(-264.74 -2.6) rotate(.52)" gradientUnits="userSpaceOnUse">
      <stop offset="0" stop-color="#fff" stop-opacity="0"/>
      <stop offset="1" stop-color="#fff"/>
    </linearGradient>
  </defs>
  <g class="cls-3">
    <g id="Layer_2" data-name="Layer 2">
      <g id="Layer_1-2" data-name="Layer 1">
        <g>
          <g>
            <path class="cls-2" d="M.02,4.97c2.35,1.15,3.14,2.07,4.09,4.8,1.01-2.72,1.81-3.62,4.18-4.73C5.94,3.89,5.16,2.96,4.21.23,3.2,2.95,2.4,3.86.02,4.97Z"/>
            <path class="cls-4" d="M4.32,1.73c.17.37.33.73.52,1.08.18.35.38.7.61,1.01.22.31.54.53.9.7.35.17.74.29,1.11.36l.54.11-.52.17c-.32.1-.64.27-.94.45-.3.18-.58.4-.84.63-.26.24-.49.5-.69.8-.21.28-.36.6-.52.93.1-.34.22-.68.4-1,.17-.32.4-.61.65-.87.25-.27.54-.5.85-.71.31-.2.64-.37,1-.5l.02.28c-.42-.08-.81-.21-1.19-.4-.37-.19-.74-.45-.96-.81-.23-.35-.4-.71-.56-1.08-.15-.37-.28-.75-.39-1.14Z"/>
            <path class="cls-5" d="M.04,4.97c.49.17.99.41,1.46.7.47.29.92.64,1.28,1.07.73.87,1.16,1.93,1.5,2.97h-.35c.42-1.02.91-2.04,1.63-2.88.73-.84,1.71-1.4,2.67-1.9v.22c-.99-.44-2.01-.97-2.74-1.86-.74-.88-1.16-1.94-1.51-2.98h.43c-.39,1.03-.84,2.08-1.6,2.93-.37.43-.83.76-1.3,1.05-.48.28-.98.51-1.47.68ZM0,4.97c.49-.29.96-.56,1.4-.87.44-.31.83-.67,1.16-1.08.66-.83,1.05-1.85,1.43-2.86.05-.12.18-.18.3-.13.06.02.11.08.13.14.38,1.01.75,2.04,1.4,2.86.64.83,1.58,1.39,2.52,1.91h0c.06.04.08.11.05.17-.01.03-.03.04-.06.05-.98.42-1.98.93-2.66,1.78-.69.83-1.04,1.89-1.4,2.91-.03.1-.14.15-.24.11-.05-.02-.09-.06-.11-.11h0c-.39-1.02-.76-2.05-1.42-2.88-.32-.42-.71-.78-1.14-1.1-.43-.32-.9-.59-1.38-.9Z"/>
          </g>
          <path class="cls-1" d="M1.85,4.98c1.31.64,1.75,1.15,2.28,2.68.56-1.51,1.01-2.02,2.33-2.64-1.31-.64-1.75-1.15-2.28-2.68-.56,1.51-1.01,2.02-2.33,2.64Z"/>
        </g>
      </g>
    </g>
  </g>
</svg>