<?xml version="1.0" encoding="UTF-8"?>
<svg xmlns="http://www.w3.org/2000/svg" xmlns:xlink="http://www.w3.org/1999/xlink" viewBox="0 0 36.12 43.76">
  <defs>
    <style>
      .cls-1 {
        fill: url(#radial-gradient-7);
      }

      .cls-2 {
        fill: url(#radial-gradient-6);
      }

      .cls-3 {
        fill: url(#radial-gradient-5);
      }

      .cls-4 {
        fill: url(#radial-gradient-4);
      }

      .cls-5 {
        fill: url(#radial-gradient-9);
      }

      .cls-6 {
        fill: url(#radial-gradient-8);
      }

      .cls-7 {
        fill: url(#radial-gradient-3);
      }

      .cls-8 {
        fill: url(#radial-gradient-2);
      }

      .cls-9 {
        opacity: .45;
      }

      .cls-9, .cls-10 {
        fill: #22263e;
      }

      .cls-9, .cls-10, .cls-11, .cls-12, .cls-13, .cls-14 {
        mix-blend-mode: overlay;
      }

      .cls-10 {
        opacity: .23;
      }

      .cls-15 {
        fill: url(#linear-gradient-7);
      }

      .cls-16 {
        fill: url(#linear-gradient-5);
      }

      .cls-17 {
        fill: url(#linear-gradient-6);
      }

      .cls-18 {
        fill: url(#linear-gradient-9);
      }

      .cls-19 {
        fill: url(#linear-gradient-3);
      }

      .cls-20 {
        fill: url(#linear-gradient-2);
      }

      .cls-21 {
        fill: url(#radial-gradient);
      }

      .cls-22 {
        fill: url(#linear-gradient);
      }

      .cls-23 {
        fill: #5b6ade;
      }

      .cls-24 {
        isolation: isolate;
      }

      .cls-11 {
        fill: url(#linear-gradient-8);
      }

      .cls-12 {
        fill: url(#linear-gradient-4);
      }

      .cls-25 {
        fill: url(#radial-gradient-12);
      }

      .cls-26 {
        fill: url(#radial-gradient-13);
      }

      .cls-27 {
        fill: url(#radial-gradient-10);
      }

      .cls-28 {
        fill: url(#radial-gradient-11);
      }

      .cls-29 {
        fill: #fff;
      }

      .cls-30 {
        fill: #14419d;
      }

      .cls-13 {
        fill: url(#linear-gradient-12);
      }

      .cls-14 {
        fill: url(#linear-gradient-11);
      }

      .cls-31 {
        fill: url(#linear-gradient-10);
      }

      .cls-32 {
        fill: #414fba;
      }

      .cls-33 {
        fill: #1cd7f6;
      }
    </style>
    <radialGradient id="radial-gradient" cx="18.05" cy="21.88" fx="18.05" fy="21.88" r="19.43" gradientUnits="userSpaceOnUse">
      <stop offset=".19" stop-color="#92adf7"/>
      <stop offset=".96" stop-color="#8c95fe"/>
    </radialGradient>
    <linearGradient id="linear-gradient" x1="17.51" y1="24.51" x2="18.3" y2="35.71" gradientUnits="userSpaceOnUse">
      <stop offset=".06" stop-color="#40e8f8"/>
      <stop offset="1" stop-color="#0298f7"/>
    </linearGradient>
    <radialGradient id="radial-gradient-2" cx="21.12" cy="40.47" fx="21.12" fy="40.47" r="2.13" gradientUnits="userSpaceOnUse">
      <stop offset=".19" stop-color="#baa8ff"/>
      <stop offset=".96" stop-color="#bca5fe"/>
    </radialGradient>
    <linearGradient id="linear-gradient-2" x1="7.44" y1="25.23" x2="8.23" y2="36.44" xlink:href="#linear-gradient"/>
    <radialGradient id="radial-gradient-3" cx="3.93" cy="40.53" fx="3.93" fy="40.53" r="2.25" xlink:href="#radial-gradient-2"/>
    <linearGradient id="linear-gradient-3" x1="11.45" y1="24.94" x2="12.24" y2="36.12" xlink:href="#linear-gradient"/>
    <radialGradient id="radial-gradient-4" cx="10.86" cy="42.37" fx="10.86" fy="42.37" r="1.39" xlink:href="#radial-gradient-2"/>
    <radialGradient id="radial-gradient-5" cx="12.95" cy="19.18" fx="12.95" fy="19.18" r="1.53" gradientUnits="userSpaceOnUse">
      <stop offset="0" stop-color="#3e3b37"/>
      <stop offset=".96" stop-color="#3e3730"/>
    </radialGradient>
    <radialGradient id="radial-gradient-6" cx="12.95" cy="18.03" fx="12.95" fy="18.03" r="1.96" gradientUnits="userSpaceOnUse">
      <stop offset=".19" stop-color="#abc1ff"/>
      <stop offset="1" stop-color="#b2affe"/>
    </radialGradient>
    <radialGradient id="radial-gradient-7" cy="17.29" fy="17.29" r="1.91" xlink:href="#radial-gradient-6"/>
    <radialGradient id="radial-gradient-8" cx="5.06" cy="15.62" fx="5.06" fy="15.62" r="3.1" xlink:href="#radial-gradient-6"/>
    <linearGradient id="linear-gradient-4" x1="5.61" y1="19.12" x2="4.75" y2="14.92" gradientUnits="userSpaceOnUse">
      <stop offset="0" stop-color="#fcfcfc" stop-opacity="0"/>
      <stop offset="1" stop-color="#c8b5ff"/>
    </linearGradient>
    <radialGradient id="radial-gradient-9" cx="14.38" cy="10.6" fx="14.38" fy="10.6" r="14.3" xlink:href="#radial-gradient-5"/>
    <radialGradient id="radial-gradient-10" cx="11.04" cy="18.21" fx="11.04" fy="18.21" r="7.7" xlink:href="#radial-gradient-2"/>
    <linearGradient id="linear-gradient-5" x1="11.93" y1="16.07" x2="9.95" y2="8.69" gradientUnits="userSpaceOnUse">
      <stop offset="0" stop-color="#fcfcfc" stop-opacity="0"/>
      <stop offset="1" stop-color="#ffb5f1"/>
    </linearGradient>
    <linearGradient id="linear-gradient-6" x1="8.27" y1="13.98" x2="8.87" y2="10.75" gradientTransform="translate(19.25 1.69) rotate(81.91)" xlink:href="#linear-gradient-5"/>
    <linearGradient id="linear-gradient-7" x1="8.96" y1="14.1" x2="9.56" y2="10.88" gradientTransform="translate(20.41 1.68) rotate(81.91)" xlink:href="#linear-gradient-5"/>
    <radialGradient id="radial-gradient-11" cx="20.33" cy=".92" fx="20.33" fy=".92" r="11.02" xlink:href="#radial-gradient-6"/>
    <linearGradient id="linear-gradient-8" x1="20.38" y1="13.5" x2="18.47" y2="6.35" xlink:href="#linear-gradient-4"/>
    <radialGradient id="radial-gradient-12" cx="27.58" cy="8.12" fx="27.58" fy="8.12" r="6.06" xlink:href="#radial-gradient-6"/>
    <radialGradient id="radial-gradient-13" cx="31.25" cy="7.2" fx="31.25" fy="7.2" r="4.63" xlink:href="#radial-gradient-6"/>
    <linearGradient id="linear-gradient-9" x1="31.02" y1="9.02" x2="29.12" y2="1.92" gradientUnits="userSpaceOnUse">
      <stop offset="0" stop-color="#fcfcfc" stop-opacity="0"/>
      <stop offset="1" stop-color="#fff"/>
    </linearGradient>
    <linearGradient id="linear-gradient-10" x1="32.29" y1="10.72" x2="30.4" y2="3.67" xlink:href="#linear-gradient-9"/>
    <linearGradient id="linear-gradient-11" x1="27.13" y1="12.11" x2="24.42" y2="1.99" xlink:href="#linear-gradient-4"/>
    <linearGradient id="linear-gradient-12" x1="29.35" y1="11.25" x2="26.72" y2="1.42" xlink:href="#linear-gradient-4"/>
  </defs>
  <g class="cls-24">
    <g id="Layer_2" data-name="Layer 2">
      <g id="Layer_1-2" data-name="Layer 1">
        <g>
          <g>
            <path class="cls-21" d="M10.8,43.11c-.22-.03-.42-.09-.59-.19-.56-.29-.9-.91-.85-1.56l.23-2.96.81-10.9-5.2,12.75c-.26.61-.85,1.01-1.51,1.01-.2,0-.4-.04-.59-.11-.25-.09-.42-.24-.53-.33-.51-.51-.65-1.21-.38-1.82l3.87-9.49,4.06-9.94c-.01-.07-.02-.14-.02-.22-.46-.3-.61-.67-.65-.95-.13.04-.29.06-.45.06-.44,0-.88-.17-1.31-.49l-4.28,1.15c-.12.04-.26.05-.4.05-.28,0-.56-.08-.83-.23-.03-.02-.11-.07-.14-.09-.5-.33-.95-.99-1.2-1.78,0,0-.02-.08-.03-.09-.4-1.26-.14-2.42.69-2.91.04-.03.15-.09.26-.13.02,0,.08-.02.1-.03l3.93-1.46c.18-.67.54-1.18,1.04-1.45.01-.01.1-.06.19-.09,0,0,.09-.04.1-.04.03,0,.06-.02.09-.03l.28-.1c.21-.42.42-.68.51-.78q.14-.22,3.48-1.42l1.43-.51s.05-.02.11-.04l.26-.1c.18-.09.38-.1.51-.1.32,0,.89.08,1.2.13.02,0,.05,0,.07.02l.07-.02c.23-.49.55-.86.95-1.1.09-.07.2-.12.31-.16.1-.04.2-.07.31-.09l4.54-1.38c.24-1.18.79-2.04,1.55-2.48.09-.07.19-.12.29-.16,0,0,.02,0,.02-.01.01,0,.07-.03.12-.05.06-.02.13-.04.2-.05l5.74-1.72c.25-.08.5-.12.76-.12,1.93,0,3.93,2.17,4.97,5.39,1.19,3.68.51,6.96-1.57,7.63-.02,0-5.95,1.77-5.95,1.77-.23.07-.49.12-.75.12-.6,0-1.22-.21-1.84-.64l-5.16,1.54c-.19.06-.41.1-.63.1-.39,0-.8-.12-1.21-.35l-.33.09c-.2.32-.52.59-.95.81-.01,0-.03.01-.05.02,0,.04,0,.08,0,.11v.97c0,.33-.1.82-.67,1.18,0,.21-.06.44-.22.66l6.81,16.18,1.15,2.76c.17.39.18.84.01,1.24-.16.41-.48.73-.89.9-.21.08-.41.11-.61.11-.67,0-1.27-.41-1.51-1.01l-4.14-9.82-2.52-5.99-.4,5.41-.65,8.83-.23,3c-.08.85-.79,1.5-1.63,1.5-.03,0-.14,0-.17,0Z"/>
            <path class="cls-29" d="M29.93,1.26c1.63,0,3.43,2.04,4.37,4.95,1.06,3.28.55,6.28-1.17,6.83,0,0,0,0,0,0,0,0,0,0,0,0l-5.93,1.77c-.18.06-.37.09-.57.09-.57,0-1.15-.26-1.72-.7l-5.46,1.62c-.14.05-.29.07-.45.07-.37,0-.75-.15-1.11-.4l-.87.23c-.1.3-.36.56-.8.78-.02,0-.04.02-.06.02-.18.09-.38.17-.62.24.02.02.04.04.06.06.14.08.23.22.23.39v1.04c0,.35-.27.58-.66.73v.36c0,.23-.14.4-.34.53l4.22,10.04,2.75,6.54,1.15,2.76c.11.24.11.51,0,.76-.1.25-.29.44-.55.55-.11.04-.24.06-.37.06-.41,0-.78-.25-.92-.61l-1.16-2.74-2.99-7.09-3.53-8.41-.6,8.02-.65,8.83-.23,2.99c-.05.51-.49.92-1,.92-.02,0-.07,0-.09,0-.14-.02-.27-.06-.36-.11-.35-.19-.56-.56-.53-.96l.23-2.96.65-8.76.46-6.14-2.63,6.45-2.8,6.87-1.28,3.14c-.16.37-.52.61-.92.61-.13,0-.25-.02-.36-.07-.14-.05-.24-.14-.34-.22-.29-.29-.37-.72-.22-1.08l1.25-3.09,2.62-6.42,4.14-10.15c-.04-.08-.06-.16-.06-.26v-.36c-.39-.16-.66-.39-.66-.73v-.63s-.02-.01-.03-.02l-.68.18c-.11.04-.23.05-.35.05-.39,0-.79-.2-1.16-.55l-.18.05-4.41,1.18c-.08.02-.16.03-.24.03-.17,0-.35-.05-.52-.15-.02-.01-.04-.02-.06-.04-.42-.28-.79-.82-.98-1.47,0-.01,0-.02,0-.03,0,0,0,0,0-.01-.32-1.01-.16-1.9.39-2.22.04-.03.09-.06.14-.08.01,0,.03,0,.04-.01l4.33-1.6c.1-.64.37-1.13.79-1.36.03-.02.07-.04.11-.06.02-.01.05-.02.08-.03.02,0,.04-.01.06-.02l.57-.21c.18-.44.4-.73.51-.85q.08-.13,3.22-1.25c.58-.21,1.11-.4,1.43-.51.04-.02.07-.03.1-.03.18-.07.3-.12.32-.13.07-.03.14-.05.26-.05.32,0,1.03.11,1.11.13.06,0,.1.04.14.07l.57-.21c.18-.49.45-.86.82-1.07.05-.04.1-.07.17-.09h.02s.11-.05.17-.06l5.01-1.52c.17-1.17.62-2.06,1.35-2.44.05-.05.12-.08.19-.1.01,0,.03-.02.04-.02.02,0,.04-.02.06-.02.05-.02.09-.02.13-.03l5.79-1.73s0,0,.01,0c.18-.06.37-.09.57-.09M29.93,0h0c-.33,0-.65.05-.95.15-.01,0-.03,0-.05.02l-5.65,1.69c-.09.02-.17.04-.26.06-.07.02-.13.05-.2.08-.14.05-.27.12-.38.21-.82.48-1.42,1.35-1.73,2.51l-4.22,1.28c-.11.02-.23.06-.33.1-.15.06-.29.13-.42.22-.38.23-.7.56-.96.96-.31-.04-.71-.09-.98-.09-.29,0-.54.05-.77.16l-.2.08h-.01c-.06.02-.11.04-.16.06l-1.38.49c-3.35,1.2-3.53,1.26-3.8,1.67-.1.12-.26.33-.42.61h-.02s-.06.02-.09.03c-.08.03-.15.05-.21.08-.09.04-.17.08-.26.14-.54.31-.95.82-1.19,1.48l-3.67,1.35s-.04.01-.05.02c-.16.05-.31.13-.45.23-1.04.65-1.39,2.07-.9,3.63,0,.03.02.06.02.07.28.9.81,1.68,1.46,2.12.06.04.11.08.17.11.37.21.75.31,1.14.31.2,0,.4-.03.59-.08l3.98-1.07c.46.28.94.43,1.43.43,0,0,0,0,.01,0,.09.18.22.36.4.53l-3.94,9.64-2.62,6.42-1.26,3.09c-.36.82-.17,1.79.49,2.45.02.02.05.04.07.07.13.11.36.31.72.44.25.1.52.15.81.15.92,0,1.74-.54,2.09-1.39l1.29-3.16,2.4-5.9-.51,6.91-.23,2.96c-.07.9.4,1.75,1.2,2.17.2.12.48.21.79.25.05,0,.19.01.25.01,1.16,0,2.16-.91,2.26-2.07l.23-3.01.65-8.83.21-2.79,1.5,3.57,2.99,7.09,1.15,2.74c.32.82,1.16,1.38,2.09,1.38.28,0,.55-.05.81-.15.61-.26,1.05-.7,1.28-1.26.23-.56.22-1.18-.02-1.74l-1.15-2.74-2.75-6.55-3.93-9.35c.05-.12.09-.24.11-.35.62-.52.7-1.16.7-1.46v-.78c.28-.17.51-.37.69-.59.41.18.81.28,1.22.28.28,0,.56-.04.83-.13l4.85-1.44c.64.39,1.29.58,1.94.58.33,0,.65-.05.96-.15l5.87-1.75s.03,0,.04-.01c2.49-.8,3.32-4.35,2.01-8.43-1.14-3.54-3.33-5.83-5.57-5.83h0Z"/>
          </g>
          <g>
            <g>
              <path class="cls-22" d="M22.05,40.36c-.32,0-.6-.19-.71-.48l-4.14-9.83-4.2-9.99c-.16-.39.02-.84.41-1.01.1-.04.2-.06.3-.06.31,0,.58.19.71.47l7.18,17.07,1.16,2.76c.08.19.08.39,0,.59-.08.19-.22.34-.42.42-.1.04-.19.05-.29.05Z"/>
              <path class="cls-23" d="M13.71,19.22c.21,0,.41.12.5.33l4.43,10.53,2.75,6.54,1.16,2.76c.12.27,0,.6-.29.71-.07.03-.14.04-.21.04-.22,0-.42-.13-.51-.33l-1.16-2.74-2.99-7.09-4.2-9.99c-.12-.28,0-.6.29-.71.07-.03.14-.04.22-.04M13.71,18.77c-.13,0-.26.03-.39.08-.51.21-.74.8-.53,1.3l4.2,9.99,2.99,7.09,1.16,2.74c.14.36.51.61.92.61.13,0,.25-.02.37-.06.26-.11.45-.3.55-.55.1-.25.1-.52,0-.76l-1.15-2.76-2.75-6.54-4.43-10.53c-.16-.37-.51-.61-.91-.61h0Z"/>
            </g>
            <path class="cls-9" d="M18.64,30.08c-.4-.05-.81-.08-1.24-.12l-4.2-9.99c-.12-.28,0-.6.29-.71s.6,0,.71.29l4.43,10.53Z"/>
            <g>
              <path class="cls-8" d="M22.05,40.29c-.29,0-.55-.17-.65-.43l-1.15-2.74c-.03-.08,0-.17.08-.21l1-.43s.04-.01.06-.01.04,0,.06.01c.04.02.07.05.09.09l1.16,2.76c.07.17.08.36,0,.53-.07.18-.21.31-.38.38-.09.03-.18.05-.27.05Z"/>
              <path class="cls-32" d="M21.39,36.63l1.16,2.76c.12.27,0,.6-.29.71-.07.03-.14.04-.21.04-.22,0-.42-.13-.51-.33l-1.16-2.74,1-.43M21.39,36.31s-.09,0-.13.03l-1,.43c-.16.07-.23.25-.17.41l1.16,2.74c.12.31.44.53.8.53.11,0,.22-.02.32-.06.22-.09.39-.26.48-.48.09-.21.08-.45,0-.66l-1.15-2.76c-.03-.08-.09-.14-.17-.17-.04-.02-.08-.02-.12-.02h0Z"/>
            </g>
          </g>
          <g>
            <g>
              <path class="cls-20" d="M3.69,40.41c-.1,0-.19-.02-.29-.05-.1-.04-.18-.1-.24-.15-.25-.24-.31-.58-.18-.86l8.12-19.91c.12-.29.4-.48.71-.48.1,0,.2.02.3.06.02,0,.06.03.09.06h0c.34.18.48.6.32.95l-8.12,19.92c-.12.29-.4.48-.72.48Z"/>
              <path class="cls-23" d="M11.82,19.18c.07,0,.14.01.21.04.03,0,.05.02.07.05.23.13.33.42.23.66l-.33.82-3.71,9.1-2.8,6.87-1.28,3.14c-.09.21-.29.34-.51.34-.07,0-.14-.01-.21-.04-.07-.03-.13-.07-.18-.12-.15-.15-.21-.39-.12-.6l1.25-3.09,2.62-6.42,4.25-10.41c.09-.21.29-.34.5-.34M11.82,18.72c-.4,0-.76.24-.92.62l-4.25,10.42-2.62,6.42-1.25,3.09c-.16.36-.08.79.22,1.08.1.08.2.17.34.22.11.04.24.07.36.07.41,0,.77-.24.92-.61l1.28-3.14,2.8-6.87,3.71-9.1.33-.82c.19-.42.03-.93-.36-1.19-.08-.07-.17-.1-.21-.12-.09-.04-.22-.07-.35-.07h0Z"/>
            </g>
            <g>
              <path class="cls-7" d="M3.69,40.34c-.09,0-.18-.02-.26-.05-.09-.04-.16-.09-.22-.14-.22-.22-.28-.52-.17-.78l1.25-3.08c.03-.06.08-.1.15-.1.02,0,.04,0,.05,0l1.04.36s.07.04.09.08c.02.04.02.08,0,.12l-1.28,3.14c-.11.26-.37.43-.65.43Z"/>
              <path class="cls-32" d="M4.44,36.35l1.04.36-1.28,3.14c-.09.21-.29.34-.51.34-.07,0-.14-.01-.21-.04-.07-.03-.13-.07-.18-.12-.15-.15-.21-.39-.12-.6l1.25-3.09M4.44,36.03c-.13,0-.24.07-.29.2l-1.25,3.09c-.14.32-.07.69.19.94.08.07.17.14.29.19.1.04.21.06.32.06.35,0,.66-.21.8-.53l1.28-3.14c.03-.08.03-.17,0-.25s-.1-.14-.18-.17l-1.04-.36s-.07-.02-.1-.02h0Z"/>
            </g>
            <path class="cls-9" d="M12.32,19.92l-4.04,9.92c-.41.02-.81.05-1.22.09l4.25-10.41c.12-.28.43-.42.71-.3.28.11.42.43.3.7Z"/>
          </g>
          <g>
            <g>
              <path class="cls-19" d="M10.93,42.27c-.13-.02-.22-.05-.3-.09-.27-.14-.43-.43-.4-.74l.23-2.96,1.45-19.58c.02-.39.36-.71.76-.71.27.02.46.11.59.26.14.16.2.36.18.57l-.8,10.72-.65,8.83-.23,2.99c-.04.4-.38.71-.78.71,0,0-.04,0-.05,0Z"/>
              <path class="cls-23" d="M12.66,18.41s.03,0,.05,0c.3.02.52.28.5.59l-.8,10.72-.65,8.83-.23,2.99c-.03.29-.27.51-.55.51-.01,0-.02,0-.03,0-.07,0-.14-.03-.21-.06-.19-.1-.31-.3-.29-.52l.23-2.96.65-8.76.67-8.99.11-1.48.03-.35c.02-.28.25-.5.54-.5M12.66,17.96h0c-.52,0-.96.41-.99.92l-.03.34-.11,1.48-.67,8.99-.65,8.76-.23,2.96c-.03.4.18.77.53.96.09.05.22.09.36.11.02,0,.07,0,.09,0,.52,0,.96-.4,1-.92l.23-2.99.65-8.83.8-10.72c.02-.27-.06-.53-.24-.73-.17-.2-.42-.32-.68-.34,0,0-.07,0-.08,0h0Z"/>
            </g>
            <g>
              <path class="cls-4" d="M10.93,42.2c-.12-.01-.2-.04-.28-.08-.25-.13-.39-.39-.37-.67l.23-2.96c0-.08.08-.15.16-.15,0,0,1.09.05,1.09.05.04,0,.08.02.11.05s.04.07.04.12l-.23,2.99c-.03.37-.35.65-.71.65,0,0-.04,0-.04,0Z"/>
              <path class="cls-32" d="M10.67,38.49l1.08.05-.23,2.99c-.03.29-.27.51-.55.51-.01,0-.02,0-.03,0-.07,0-.14-.03-.21-.06-.19-.1-.31-.3-.29-.52l.23-2.96M10.67,38.18c-.16,0-.3.13-.31.29l-.23,2.96c-.03.34.15.67.46.83.08.05.19.08.31.1.01,0,.06,0,.07,0,.45,0,.83-.35.87-.79l.23-2.99c0-.08-.02-.17-.08-.23-.06-.06-.14-.1-.22-.11l-1.08-.05s-.01,0-.02,0h0Z"/>
            </g>
            <path class="cls-9" d="M13.21,19l-.8,10.72c-.35,0-.71,0-1.08,0l.8-10.82c.02-.3.28-.52.59-.5.3.02.52.28.5.59Z"/>
          </g>
          <g>
            <path class="cls-3" d="M12.95,20c-.33,0-2-.03-2-.66v-.76c0-.12.1-.23.23-.23h3.55c.12,0,.23.1.23.23v.71c0,.67-1.66.7-2,.7Z"/>
            <path class="cls-32" d="M14.72,18.59v.76c0,.24-.79.43-1.77.43s-1.77-.19-1.77-.43v-.76h3.55M14.72,18.14h-3.55c-.25,0-.45.2-.45.45v.76c0,.77,1.39.88,2.22.88s2.22-.11,2.22-.88v-.76c0-.25-.2-.45-.45-.45h0Z"/>
          </g>
          <g>
            <g>
              <path class="cls-2" d="M12.95,19c-.96,0-2.6-.16-2.6-.75v-1.04c0-.09.07-.16.16-.16h4.87c.09,0,.16.07.16.16v.97c0,.66-1.63.82-2.6.82Z"/>
              <path class="cls-23" d="M15.38,17.21v1.04c0,.33-1.09.59-2.44.59s-2.44-.26-2.44-.59v-1.04h4.87M15.38,16.89h-4.87c-.18,0-.32.15-.32.32v1.04c0,.85,2.11.91,2.76.91s2.76-.07,2.76-.91v-1.04c0-.18-.15-.32-.32-.32h0Z"/>
            </g>
            <g>
              <path class="cls-1" d="M12.95,18.04c-.96,0-2.6-.16-2.6-.75s1.63-.75,2.6-.75,2.6.16,2.6.75-1.63.75-2.6.75Z"/>
              <path class="cls-23" d="M12.95,16.7c1.35,0,2.44.26,2.44.59s-1.09.59-2.44.59-2.44-.26-2.44-.59,1.09-.59,2.44-.59M12.95,16.37c-.65,0-2.76.07-2.76.91s2.11.91,2.76.91,2.76-.07,2.76-.91-2.11-.91-2.76-.91h0Z"/>
            </g>
            <ellipse class="cls-9" cx="12.95" cy="17.29" rx="2.44" ry=".59"/>
          </g>
          <g>
            <g>
              <path class="cls-6" d="M3,18.27c-.12,0-.25-.04-.38-.11-.38-.25-.73-.75-.91-1.34-.28-.88-.17-1.68.25-1.93.02-.02.04-.04.07-.05l.11-.03,4.92-1.83s.04-.01.06-.01c.02,0,.05,0,.07.02.04.02.07.05.08.09l1.26,3.54s.01.09,0,.13c-.02.04-.06.07-.1.08l-.86.23-4.41,1.18s-.1.02-.16.02Z"/>
              <path class="cls-23" d="M7.12,13.14l.65,1.81.61,1.72-.86.23-4.41,1.18s-.08.02-.11.02c-.1,0-.2-.03-.3-.09h0c-.32-.21-.64-.66-.82-1.25,0,0,0-.03,0-.04-.26-.81-.15-1.56.23-1.73h0s.03-.02.03-.02h0s.02,0,.03,0l4.98-1.84M7.12,12.81s-.08,0-.11.02l-4.97,1.84s-.03,0-.04,0c-.04.01-.08.04-.11.06-.5.29-.64,1.14-.34,2.08,0,0,0,.01,0,.02,0,0,0,.02,0,.03.19.62.54,1.14.94,1.4.01.01.03.02.04.03.15.09.31.13.46.13.07,0,.14,0,.2-.03l4.41-1.18.86-.24c.09-.02.16-.08.2-.16s.05-.17.02-.26l-.61-1.72-.65-1.81c-.03-.08-.09-.15-.17-.18-.04-.02-.09-.03-.14-.03h0Z"/>
            </g>
            <path class="cls-9" d="M8.39,16.67l-5.27,1.42c-.42.13-.97-.46-1.25-1.32,0,0,0-.03,0-.04,1.43-.44,3.72-1.14,5.91-1.79l.61,1.72Z"/>
            <path class="cls-12" d="M8.39,16.67l-.86.23s-1.06-.81-1.36-3.08l-3.99,1.46s-.51.23-.08,1.57c.17.53.4.9.6,1.15-.32-.2-.64-.65-.82-1.24,0,0,0-.03,0-.04-.26-.81-.15-1.56.23-1.73h0s.03-.02.03-.02h0s.02,0,.03,0l4.98-1.84.65,1.81.61,1.72Z"/>
          </g>
          <g>
            <path class="cls-5" d="M8.99,17.62c-.82,0-1.72-1.02-2.19-2.48-.5-1.54-.3-2.96.44-3.35.02-.02.05-.04.08-.05.03,0,.12-.04.15-.04l8.66-3.21s.05-.01.08-.01c.03,0,.07,0,.1.02.05.03.1.07.12.13l2.22,6.19c.02.06.02.12-.01.18-.03.06-.08.1-.14.11l-9.22,2.47c-.08.03-.18.04-.27.04h0Z"/>
            <path class="cls-32" d="M16.21,8.7l2.22,6.19-9.22,2.47c-.07.02-.14.03-.21.03-.69,0-1.54-.97-1.98-2.33-.47-1.45-.29-2.81.38-3.11h0s.04-.02.04-.02c0,0,.02-.01.03-.01.01,0,.02,0,.04,0l8.72-3.22M16.21,8.25c-.05,0-.11,0-.16.03l-8.67,3.21s-.05,0-.07.02c-.03,0-.05.02-.07.03-.04.01-.08.03-.11.06-.85.46-1.08,1.95-.54,3.62.5,1.55,1.49,2.64,2.41,2.64.12,0,.24-.02.35-.06l9.2-2.46c.12-.03.22-.11.28-.23.06-.11.07-.24.03-.36l-2.22-6.19c-.04-.11-.12-.21-.23-.26-.06-.03-.13-.04-.19-.04h0Z"/>
          </g>
          <g>
            <g>
              <path class="cls-27" d="M10.82,17.8c-.21,0-1.94-.69-2.73-3.25,0,0-.03-.1-.03-.1-.02-.08-.04-.15-.06-.22-.57-2.21.32-3.42.61-3.74.04-.06.05-.07,3.11-1.17l1.49-.54c.25-.09.38-.15.4-.16.04-.02.09-.03.19-.03.32,0,1.05.12,1.08.12.07.01.12.07.13.14s-.04.14-.1.16l-1.39.51s-.69.87-.19,3.26c.56,2.55,2.19,2.86,2.25,2.87l1.14-.32s.03,0,.04,0c.04,0,.07.01.1.04.04.03.06.09.05.14-.04.33-.29.61-.76.85-.22.1-.45.2-.71.27-.06.02-3.21.81-4.26,1.07-.02.01-.03.02-.05.02l-.32.07Z"/>
              <path class="cls-32" d="M13.79,8.76c.31,0,1.05.12,1.05.12l-1.39.51s-.83.87-.29,3.44c0,.02,0,.05.02.07.58,2.63,2.36,2.92,2.36,2.92l1.21-.32c-.04.32-.35.56-.68.72h-.02c-.32.17-.66.25-.69.26-.04,0-3.28.83-4.28,1.07h0c-.18.05-.28.07-.29.07-.05,0-1.78-.55-2.58-3.14-.03-.1-.06-.21-.08-.3-.62-2.39.53-3.56.58-3.61.04-.05,3.34-1.22,4.53-1.65.02,0,.03,0,.04,0,.23-.09.36-.14.38-.15.02,0,.06-.01.12-.01M13.79,8.45c-.12,0-.19.01-.26.05-.02,0-.14.06-.33.13-.03,0-.06.02-.08.03-.32.11-.85.3-1.43.51q-3.14,1.12-3.22,1.25c-.28.31-1.22,1.57-.62,3.86,0,.05.03.13.05.21l.03.09c.84,2.71,2.66,3.37,2.89,3.37.02,0,.09-.01.12-.02.04-.01.12-.03.23-.05.03,0,.06-.02.08-.03.96-.24,3.55-.89,4.1-1.03l.1-.03c.28-.08.51-.16.71-.27.02,0,.04-.01.06-.02.52-.26.81-.59.85-.97.01-.1-.03-.21-.11-.27-.06-.05-.13-.08-.21-.08-.03,0-.05,0-.08.01l-1.13.3c-.29-.08-1.58-.53-2.05-2.67,0-.03-.01-.06-.02-.09-.42-2,.04-2.88.18-3.09l1.3-.48c.13-.05.22-.18.2-.33-.01-.14-.12-.26-.26-.28-.08-.01-.78-.13-1.11-.13h0Z"/>
            </g>
            <path class="cls-9" d="M16.76,15.51c-.08.66-1.33.97-1.38.98-.05,0-4.53,1.15-4.57,1.15-.05,0-1.78-.55-2.58-3.14-.03-.1-.06-.21-.08-.3.82-.14,2.79-.52,5.02-1.36,0,.02,0,.05.02.07.58,2.63,2.36,2.92,2.36,2.92l1.21-.32Z"/>
            <path class="cls-9" d="M16.76,15.51c-.04.32-.35.56-.68.72h-.02c-.43.07-.89.05-1.34-.18-1.44-.72-2.35-2.68-2.2-4.95.07-1.27.44-1.88.74-2.17.24-.09.4-.15.42-.16.13-.06,1.17.11,1.17.11l-1.39.51s-.83.87-.29,3.44c0,.02,0,.05.02.07.58,2.63,2.36,2.92,2.36,2.92l1.21-.32Z"/>
          </g>
          <path class="cls-16" d="M14.09,15.64c-.15-.06-1.12-.55-1.63-2.5-.56-2.11-.09-3.43-.09-3.43l-3.34,1.16s-1.33,1.45-.22,4.3c.81,2.08,2.29,2.4,2.29,2.4h0c-.18.05-.28.07-.29.07-.05,0-1.78-.55-2.58-3.14-.03-.1-.06-.21-.08-.3-.62-2.39.53-3.56.58-3.61.04-.05,3.34-1.22,4.53-1.65.02,0,.03,0,.04,0-.43.48-.91,1.4-.79,3.02.21,2.61,1.43,3.57,1.58,3.68Z"/>
          <ellipse class="cls-17" cx="8.65" cy="11.93" rx=".71" ry=".36" transform="translate(-4.38 18.82) rotate(-81.91)"/>
          <ellipse class="cls-15" cx="9.24" cy="12.6" rx=".29" ry=".15" transform="translate(-4.53 19.97) rotate(-81.91)"/>
          <g>
            <path class="cls-33" d="M12.59,18.3c-.65,0-1.18-.53-1.18-1.18s.53-1.18,1.18-1.18,1.18.53,1.18,1.18-.53,1.18-1.18,1.18Z"/>
            <path class="cls-32" d="M12.59,16.05c.59,0,1.07.48,1.07,1.07s-.48,1.07-1.07,1.07-1.07-.48-1.07-1.07.48-1.07,1.07-1.07M12.59,15.82c-.71,0-1.3.58-1.3,1.3s.58,1.3,1.3,1.3,1.3-.58,1.3-1.3-.58-1.3-1.3-1.3h0Z"/>
          </g>
          <g>
            <g>
              <path class="cls-28" d="M19.01,15.61c-1.08,0-2.32-1.44-2.97-3.43-.02-.05-.03-.1-.04-.15-.62-2.04-.36-3.93.62-4.43.02-.02.04-.04.07-.04,0,0,0,0,0,0,.01,0,.06-.04.13-.04.02,0,.04,0,.06,0l6.26-1.91s.03,0,.05,0c.06,0,.12.04.15.1l1.54,3.71,1.6,3.85s.02.09,0,.13-.06.07-.1.09l-7,2.08c-.11.04-.23.05-.35.05Z"/>
              <path class="cls-23" d="M23.18,5.75l1.54,3.71,1.6,3.85-7,2.08c-.1.03-.2.05-.31.05-.99,0-2.19-1.38-2.82-3.31-.02-.05-.03-.09-.04-.14-.61-2.01-.36-3.86.58-4.28h0s.06-.03.06-.03c0,0,.02-.02.04-.02,0,0,.03,0,.05,0l6.31-1.91M23.18,5.43s-.06,0-.09.01l-6.29,1.91s0,0,0,0c-.05,0-.09.02-.13.04h-.01s-.09.04-.13.07c-1.04.56-1.32,2.47-.66,4.62,0,.03.02.1.05.16.67,2.06,1.95,3.52,3.12,3.52.14,0,.28-.02.41-.06l7-2.08c.09-.03.16-.09.2-.17.04-.08.04-.18,0-.26l-1.6-3.85-1.54-3.71c-.05-.12-.17-.2-.3-.2h0Z"/>
            </g>
            <path class="cls-9" d="M26.32,13.32l-7,2.08c-1.04.33-2.43-1.13-3.12-3.27-.02-.05-.03-.09-.04-.14l8.56-2.54,1.6,3.85Z"/>
            <path class="cls-11" d="M19.25,15.04s-1.72-.27-2.68-2.53-.12-4.26-.12-4.26l4.91-1.58s.23,4.18,2.64,6.81"/>
          </g>
          <g>
            <g>
              <path class="cls-25" d="M26.63,14.62c-1.48,0-3.21-2-4.09-4.75-.1-.29-.18-.6-.25-.88-.63-2.64-.21-4.89,1.04-5.49.02-.02.05-.04.08-.05,0,0,.09-.04.1-.04.02-.01.08-.02.11-.02l5.85-1.75s.03,0,.05,0c.07,0,.13.04.15.11l3.5,10.84s0,.09-.01.13c-.02.04-.06.07-.1.08l-5.94,1.77c-.15.05-.31.07-.47.07Z"/>
              <path class="cls-23" d="M29.49,1.78l1.54,4.78,1.96,6.06-5.94,1.77c-.14.05-.28.07-.43.07-1.38,0-3.07-1.93-3.94-4.64-.1-.29-.18-.59-.24-.87-.61-2.56-.21-4.8.99-5.33v-.02l.07-.02s.04-.03.05-.04c.03,0,.05,0,.07,0l5.86-1.75M29.5,1.46s-.06,0-.09.01l-5.83,1.74s-.07,0-.11.02c-.02,0-.06.03-.08.04h-.02c-.06.02-.11.05-.15.09-1.28.67-1.73,2.97-1.08,5.66.07.31.16.62.25.9.91,2.81,2.69,4.86,4.25,4.86.18,0,.36-.03.53-.08l5.93-1.77c.08-.02.15-.08.19-.16s.05-.17.02-.25l-1.96-6.06-1.54-4.78c-.04-.14-.17-.22-.31-.22h0Z"/>
            </g>
            <path class="cls-9" d="M33,12.62l-5.94,1.77c-1.44.47-3.4-1.58-4.37-4.58-.04-.12-.07-.23-.11-.34-.05-.18-.1-.35-.14-.52l8.21-2.27.38-.11,1.96,6.06Z"/>
            <path class="cls-10" d="M30.97,7.2l-8.38,2.27c-.05-.18-.1-.35-.14-.52l8.21-2.27.31.52Z"/>
          </g>
          <g>
            <path class="cls-26" d="M32.56,12.85c-1.49,0-3.21-2-4.1-4.75-.47-1.47-.64-2.95-.47-4.15.17-1.25.69-2.07,1.45-2.32.15-.05.31-.07.48-.07,1.49,0,3.21,2,4.1,4.75.47,1.47.64,2.95.47,4.15-.17,1.25-.69,2.07-1.45,2.32-.15.05-.31.07-.48.07Z"/>
            <path class="cls-23" d="M29.93,1.71c1.39,0,3.07,1.93,3.94,4.64.97,2.99.57,5.8-.88,6.27-.14.04-.28.07-.43.07-1.39,0-3.07-1.93-3.94-4.64-.97-2.99-.57-5.8.88-6.27.14-.04.28-.07.43-.07M29.93,1.39h0c-.18,0-.36.03-.53.08-1.64.53-2.12,3.46-1.08,6.67.91,2.82,2.7,4.87,4.25,4.87.18,0,.36-.03.53-.08.83-.27,1.38-1.14,1.56-2.45.17-1.23,0-2.73-.48-4.23-.91-2.82-2.7-4.87-4.25-4.87h0Z"/>
          </g>
          <g>
            <path class="cls-30" d="M32.95,11.92c-.05.03-.11.05-.16.08-1.18.38-2.84-1.48-3.7-4.18-.67-2.05-.68-3.99-.11-4.95.17-.31.39-.51.68-.6,1.18-.38,2.84,1.49,3.7,4.18.83,2.56.63,4.94-.4,5.48Z"/>
            <path class="cls-33" d="M32.95,11.92c-.05.04-.11.06-.16.08-.21.06-.43.06-.67,0-.42-.12-.88-.45-1.31-.95-.16-.18-.32-.38-.47-.6-.43-.62-.83-1.42-1.15-2.3-.04-.1-.07-.21-.11-.32-.67-2.05-.68-4-.11-4.95.05-.05.1-.05.15-.08.23-.07.48-.06.73.03.45.14.92.52,1.37,1.06.14.16.27.34.41.54.45.67.87,1.51,1.17,2.45,0,.03.02.05.03.08.66,2.06.67,4,.11,4.96Z"/>
            <path class="cls-18" d="M31.24,3.88l-.89,6.56c-.43-.62-.83-1.42-1.15-2.3l.67-5.32c.45.14.92.52,1.37,1.06Z"/>
            <path class="cls-31" d="M32.82,6.87l-.69,5.12c-.42-.12-.88-.45-1.31-.95l.83-6.62c.45.67.87,1.51,1.17,2.45Z"/>
          </g>
          <path class="cls-14" d="M26.56,14.03s-2.07-.64-3.4-4.22c-1.33-3.59.01-5.76.16-5.8s4.11-1.26,4.11-1.26c0,0-.72,1.57.44,5.38,1.16,3.81,2.81,4.54,2.81,4.54"/>
          <path class="cls-13" d="M27.43,2.74s-.65,1.48.4,5.24c1.05,3.76,2.85,4.62,2.85,4.62,0,0-2.03-.27-3.17-4.62s-.08-5.25-.08-5.25Z"/>
        </g>
      </g>
    </g>
  </g>
</svg>